# xmcd CD database file
#
# Track frame offsets:
#	150
#	3447
#	21734
#	48310
#	68447
#	84698
#	98837
#	117554
#	141784
#	158604
#	170067
#	189802
#	207653
#	227386
#
# Disc length: 3222 seconds
#
# Revision: 0
# Processed by: cddbd v1.5.1PL0 Copyright (c) Steve Scherf et al.
# Submitted via: CDex 1.51
#
DISCID=b70c940e
DTITLE=Motor City Josh - Blue Collar Blues Man
DYEAR=2004
DGENRE=Blues
TTITLE0=Tim's Blues
TTITLE1=I'm Goin' Away
TTITLE2=I Was Born To Play The Blues
TTITLE3=Detroit Michigan
TTITLE4=Detroit Lady
TTITLE5=Funky Man Of The Blues
TTITLE6=Sit Back And Let The World Go By
TTITLE7=Born In The Dog House
TTITLE8=I'm Down For That
TTITLE9=I Can't Win For Losin'
TTITLE10=I Paid The Doctor
TTITLE11=Blue Collar Blues Man
TTITLE12=I Was Born To Play The Blues (Radio Edit)
TTITLE13=Blue Collar Blues Man (Radio Edit)
EXTD=YEAR: 2004
EXTT0=
EXTT1=
EXTT2=
EXTT3=
EXTT4=
EXTT5=
EXTT6=
EXTT7=
EXTT8=
EXTT9=
EXTT10=
EXTT11=
EXTT12=
EXTT13=
PLAYORDER=
